<svg width="18" height="18" viewBox="0 0 18 18" fill="none" xmlns="http://www.w3.org/2000/svg">
<path fill-rule="evenodd" clip-rule="evenodd" d="M3.35186 9.58602L6.74986 12.985L15.2099 4.52302C15.3529 4.3798 15.5471 4.29929 15.7495 4.29919C15.952 4.2991 16.1461 4.37943 16.2894 4.52252C16.4326 4.6656 16.5131 4.85972 16.5132 5.06216C16.5133 5.26461 16.4329 5.4588 16.2899 5.60202L7.28986 14.602C7.21913 14.6733 7.135 14.7298 7.04232 14.7684C6.94964 14.8069 6.85025 14.8268 6.74986 14.8268C6.64947 14.8268 6.55008 14.8069 6.4574 14.7684C6.36472 14.7298 6.2806 14.6733 6.20986 14.602L2.27286 10.664C2.19834 10.594 2.13864 10.5098 2.09732 10.4162C2.056 10.3227 2.03389 10.2219 2.03232 10.1196C2.03074 10.0174 2.04972 9.91591 2.08814 9.82116C2.12656 9.72641 2.18363 9.64035 2.25595 9.56809C2.32828 9.49583 2.41439 9.43885 2.50918 9.40052C2.60396 9.36219 2.70548 9.3433 2.8077 9.34497C2.90993 9.34664 3.01078 9.36884 3.10425 9.41025C3.19773 9.45166 3.28194 9.51143 3.35186 9.58602Z" fill="white"/>
</svg>
