<svg width="64" height="65" viewBox="0 0 64 65" fill="none" xmlns="http://www.w3.org/2000/svg">
<g id="paypal-mark-color.svg fill" clip-path="url(#clip0_1_1465)">
<g id="Component 1" clip-path="url(#clip1_1_1465)">
<g id="Clip path group">
<mask id="mask0_1_1465" style="ma:luminance" maskUnits="userSpaceOnUse" x="9" y="4" width="51" height="61">
<g id="a">
<path id="Vector" d="M9.4082 4.5H59.2082V64.5H9.4082V4.5Z" fill="white"/>
</g>
</mask>
<g mask="url(#mask0_1_1465)">
<g id="Group">
<path id="Vector_2" d="M51.8855 18.3C51.8855 25.732 45.0269 34.5 34.6495 34.5H24.6535L24.1629 37.596L21.8309 52.5H9.4082L16.8815 4.5H37.0082C43.7855 4.5 49.1175 8.27733 51.0815 13.5267C51.648 15.0529 51.9208 16.6724 51.8855 18.3Z" fill="#002991"/>
<path id="Vector_3" d="M59.0455 32.1C58.3825 36.1285 56.3074 39.7897 53.1917 42.428C50.0759 45.0664 46.1229 46.5099 42.0402 46.5H35.0988L32.2095 64.5H19.8535L21.8308 52.5L24.1642 37.596L24.6535 34.5H34.6495C45.0135 34.5 51.8855 25.732 51.8855 18.3C56.9855 20.932 59.9589 26.2507 59.0455 32.1Z" fill="#60CDFF"/>
<path id="Vector_4" d="M51.8853 18.3C49.7467 17.1813 47.1533 16.5 44.3307 16.5H27.4773L24.6533 34.5H34.6493C45.0133 34.5 51.8853 25.732 51.8853 18.3Z" fill="#008CFF"/>
</g>
</g>
</g>
</g>
</g>
<defs>
<clipPath id="clip0_1_1465">
<rect width="64" height="64" fill="white" transform="translate(0 0.5)"/>
</clipPath>
<clipPath id="clip1_1_1465">
<rect width="64" height="64" fill="white" transform="translate(0 0.5)"/>
</clipPath>
</defs>
</svg>
