<svg width="28" height="28" viewBox="0 0 28 28" fill="none" xmlns="http://www.w3.org/2000/svg">
<path d="M5.8335 17.5V19.8334C5.83331 20.422 6.05564 20.989 6.45591 21.4207C6.85618 21.8523 7.40481 22.1167 7.99183 22.1609L8.16683 22.1667H11.6668V24.5H8.16683C6.92915 24.5 5.74217 24.0084 4.867 23.1332C3.99183 22.258 3.50016 21.0711 3.50016 19.8334V17.5H5.8335ZM21.0002 11.6667L26.1335 24.5H23.6193L22.2182 21H17.4465L16.0477 24.5H13.5347L18.6668 11.6667H21.0002ZM19.8335 15.0325L18.3787 18.6667H21.286L19.8335 15.0325ZM9.3335 2.33337V4.66671H14.0002V12.8334H9.3335V16.3334H7.00016V12.8334H2.3335V4.66671H7.00016V2.33337H9.3335ZM19.8335 3.50004C21.0712 3.50004 22.2582 3.99171 23.1333 4.86688C24.0085 5.74205 24.5002 6.92903 24.5002 8.16671V10.5H22.1668V8.16671C22.1668 7.54787 21.921 6.95438 21.4834 6.51679C21.0458 6.07921 20.4523 5.83337 19.8335 5.83337H16.3335V3.50004H19.8335ZM7.00016 7.00004H4.66683V10.5H7.00016V7.00004ZM11.6668 7.00004H9.3335V10.5H11.6668V7.00004Z" fill="white"/>
</svg>
