<svg width="48" height="48" viewBox="0 0 48 48" fill="none" xmlns="http://www.w3.org/2000/svg">
<g clip-path="url(#clip0_0_46)">
<mask id="mask0_0_46" style="mask-type:luminance" maskUnits="userSpaceOnUse" x="7" y="3" width="38" height="45">
<path d="M7.05603 3H44.406V48H7.05603V3Z" fill="white"/>
</mask>
<g mask="url(#mask0_0_46)">
<path d="M38.914 13.35C38.914 18.924 33.77 25.5 25.987 25.5H18.49L18.122 27.822L16.373 39H7.05603L12.661 3H27.756C32.839 3 36.838 5.833 38.311 9.77C38.7358 10.9147 38.9404 12.1293 38.914 13.35Z" fill="#002991"/>
<path d="M44.284 23.7C43.7867 26.7214 42.2304 29.4673 39.8936 31.446C37.5568 33.4248 34.5921 34.5074 31.53 34.5H26.324L24.157 48H14.89L16.373 39L18.123 27.822L18.49 25.5H25.987C33.76 25.5 38.914 18.924 38.914 13.35C42.739 15.324 44.969 19.313 44.284 23.7Z" fill="#60CDFF"/>
<path d="M38.9141 13.35C37.3101 12.511 35.3651 12 33.2481 12H20.6081L18.4901 25.5H25.9871C33.7601 25.5 38.9141 18.924 38.9141 13.35Z" fill="#008CFF"/>
</g>
</g>
<defs>
<clipPath id="clip0_0_46">
<rect width="48" height="48" fill="white"/>
</clipPath>
</defs>
</svg>
