<svg width="146" height="52" viewBox="0 0 146 52" fill="none" xmlns="http://www.w3.org/2000/svg">
<mask id="mask0_0_9" style="mask-type:luminance" maskUnits="userSpaceOnUse" x="2" y="2" width="142" height="48">
<path d="M2.16296 2.18457H143.837V49.7265H2.16296V2.18457Z" fill="white"/>
</mask>
<g mask="url(#mask0_0_9)">
<path d="M143.837 2.18457V37.6896H135.758V2.18457H143.837ZM132.784 14.1674V37.7545H125.603V35.7213C124.695 36.6081 123.657 37.2786 122.51 37.7545C121.353 38.252 120.099 38.5115 118.757 38.5115C117.07 38.5115 115.502 38.1979 114.064 37.5706C112.625 36.9109 111.371 36.0133 110.311 34.8886C109.24 33.753 108.397 32.4336 107.77 30.9303C107.175 29.3946 106.883 27.74 106.883 25.9772C106.883 24.2143 107.175 22.5813 107.77 21.0781C108.397 19.5423 109.24 18.2013 110.311 17.0658C111.368 15.9388 112.646 15.0407 114.064 14.4269C115.502 13.7672 117.07 13.432 118.757 13.432C120.099 13.432 121.353 13.6807 122.51 14.189C123.667 14.6649 124.706 15.3354 125.603 16.2222V14.189H132.784V14.1674ZM120.055 31.3305C121.526 31.3305 122.727 30.833 123.667 29.8164C124.641 28.8106 125.127 27.5237 125.127 25.9555C125.127 24.3874 124.641 23.0896 123.667 22.0946C122.727 21.0889 121.515 20.5806 120.055 20.5806C118.595 20.5806 117.362 21.0781 116.389 22.0946C115.448 23.1004 114.972 24.3874 114.972 25.9555C114.972 27.5237 115.448 28.8215 116.389 29.8164C117.362 30.8222 118.584 31.3305 120.055 31.3305ZM95.3542 2.18457C97.4847 2.18457 99.3016 2.48739 100.805 3.0822C102.308 3.67701 103.573 4.50976 104.612 5.58042C105.672 6.68353 106.504 7.93805 107.099 9.35479C107.694 10.7715 107.986 12.2964 107.986 13.9295C107.986 15.5625 107.694 17.0874 107.099 18.5041C106.515 19.9078 105.671 21.1884 104.612 22.2785C103.584 23.3492 102.308 24.1819 100.805 24.7767C99.3016 25.3715 97.4847 25.6743 95.3542 25.6743H91.4609V37.7437H83.2416V2.18457H95.3542ZM94.1754 18.3635C95.2785 18.3635 96.1113 18.2554 96.7169 18.0283C97.3441 17.7795 97.8633 17.4551 98.2634 17.0874C99.107 16.2979 99.5287 15.2489 99.5287 13.9295C99.5287 12.6101 99.107 11.561 98.2634 10.7715C97.8524 10.393 97.3441 10.0902 96.7169 9.8739C96.1221 9.62516 95.2785 9.49538 94.1754 9.49538H91.4501V18.3635H94.1754ZM52.9601 14.1674H61.8824L67.9387 25.4797H68.036L73.4326 14.1674H81.6951L63.9913 49.7265H55.772L63.8507 33.461L52.9601 14.1674ZM51.3704 14.1674V37.7545H44.1893V35.7213C43.2809 36.6081 42.2427 37.2786 41.0963 37.7545C39.9391 38.252 38.6846 38.5115 37.3436 38.5115C35.6564 38.5115 34.0883 38.1979 32.6499 37.5706C31.2116 36.9109 29.957 36.0133 28.8972 34.8886C27.8265 33.753 26.983 32.4336 26.3557 30.9303C25.7609 29.3946 25.4689 27.74 25.4689 25.9772C25.4689 24.2143 25.7609 22.5813 26.3557 21.0781C26.983 19.5423 27.8265 18.2013 28.8972 17.0658C29.9525 15.9365 31.2302 15.038 32.6499 14.4269C34.0883 13.7672 35.6564 13.432 37.3436 13.432C38.6846 13.432 39.9391 13.6807 41.0963 14.189C42.2535 14.6649 43.2917 15.3354 44.1893 16.2222V14.189H51.3704V14.1674ZM38.6413 31.3305C40.1121 31.3305 41.3126 30.833 42.2643 29.8164C43.2376 28.8106 43.7243 27.5237 43.7243 25.9555C43.7243 24.3874 43.2376 23.0896 42.2643 22.0946C41.3234 21.0889 40.1121 20.5806 38.6413 20.5806C37.1705 20.5806 35.9484 21.0781 34.9751 22.0946C34.0342 23.1004 33.5692 24.3874 33.5692 25.9555C33.5692 27.5237 34.045 28.8215 34.9751 29.8164C35.9484 30.8222 37.1705 31.3305 38.6413 31.3305ZM14.2756 2.18457C16.4061 2.18457 18.223 2.48739 19.7262 3.0822C21.2295 3.67701 22.4948 4.50976 23.533 5.58042C24.5929 6.68353 25.4256 7.93805 26.0204 9.35479C26.6153 10.7715 26.9073 12.2964 26.9073 13.9295C26.9073 15.5625 26.6153 17.0874 26.0204 18.5041C25.4366 19.9078 24.5927 21.1884 23.533 22.2785C22.5056 23.3492 21.2295 24.1819 19.7262 24.7767C18.223 25.3715 16.4061 25.6743 14.2756 25.6743H10.3822V37.7437H2.16296V2.18457H14.2756ZM13.1076 18.3635C14.2107 18.3635 15.0434 18.2554 15.649 18.0283C16.2763 17.7795 16.7954 17.4551 17.1956 17.0874C18.0391 16.2979 18.4609 15.2489 18.4609 13.9295C18.4609 12.6101 18.0391 11.561 17.1956 10.7715C16.7846 10.393 16.2763 10.0902 15.649 9.8739C15.0542 9.62516 14.2107 9.49538 13.1076 9.49538H10.3822V18.3635H13.1076Z" fill="black"/>
</g>
</svg>
