<svg width="16" height="16" viewBox="0 0 16 16" fill="none" xmlns="http://www.w3.org/2000/svg">
<path fill-rule="evenodd" clip-rule="evenodd" d="M3.815 5.594C3.98184 5.4276 4.20786 5.33415 4.4435 5.33415C4.67914 5.33415 4.90516 5.4276 5.072 5.594L8 8.52L10.928 5.593C11.0099 5.50782 11.108 5.43984 11.2166 5.39303C11.3251 5.34622 11.4419 5.32151 11.5601 5.32037C11.6783 5.31922 11.7955 5.34166 11.9049 5.38636C12.0143 5.43106 12.1137 5.49713 12.1973 5.58071C12.2809 5.66429 12.3469 5.76369 12.3916 5.8731C12.4363 5.98252 12.4588 6.09975 12.4576 6.21794C12.4565 6.33613 12.4318 6.4529 12.385 6.56143C12.3382 6.66996 12.2702 6.76806 12.185 6.85L8.635 10.4C8.46634 10.5679 8.23801 10.6622 8 10.6622C7.76199 10.6622 7.53367 10.5679 7.365 10.4L3.816 6.85C3.6496 6.68316 3.55615 6.45714 3.55615 6.2215C3.55615 5.98586 3.6496 5.75984 3.816 5.593" fill="black"/>
</svg>
