<svg width="22" height="22" viewBox="0 0 22 22" fill="none" xmlns="http://www.w3.org/2000/svg">
<path d="M11.0003 14.2749C11.213 14.2749 11.3895 14.2047 11.5299 14.0643C11.6705 13.9239 11.7408 13.7473 11.7408 13.5345C11.7408 13.3218 11.6705 13.1453 11.5299 13.0049C11.3895 12.8645 11.213 12.7943 11.0003 12.7943C10.7877 12.7943 10.6111 12.8645 10.4707 13.0049C10.3302 13.1453 10.2599 13.3218 10.2599 13.5345C10.2599 13.7473 10.3302 13.9239 10.4707 14.0643C10.6111 14.2047 10.7877 14.2749 11.0003 14.2749ZM11.0003 11.0842C11.1954 11.0842 11.3587 11.0185 11.4903 10.8869C11.622 10.7552 11.6878 10.5918 11.6878 10.3967V6.23645C11.6878 6.04135 11.622 5.87803 11.4903 5.74649C11.3587 5.6148 11.1954 5.54895 11.0003 5.54895C10.8052 5.54895 10.6419 5.6148 10.5104 5.74649C10.3787 5.87803 10.3128 6.04135 10.3128 6.23645V10.3967C10.3128 10.5918 10.3787 10.7552 10.5104 10.8869C10.6419 11.0185 10.8052 11.0842 11.0003 11.0842ZM5.53562 16.8311L3.70045 18.666C3.43966 18.9269 3.13968 18.9861 2.80051 18.8434C2.4615 18.7005 2.29199 18.4434 2.29199 18.072V4.73816C2.29199 4.27509 2.45241 3.88314 2.77324 3.5623C3.09408 3.24147 3.48603 3.08105 3.9491 3.08105H18.0516C18.5146 3.08105 18.9066 3.24147 19.2274 3.5623C19.5482 3.88314 19.7087 4.27509 19.7087 4.73816V15.174C19.7087 15.637 19.5482 16.029 19.2274 16.3498C18.9066 16.6706 18.5146 16.8311 18.0516 16.8311H5.53562ZM4.95033 15.4561H18.0516C18.1221 15.4561 18.1868 15.4266 18.2454 15.3678C18.3042 15.3092 18.3337 15.2445 18.3337 15.174V4.73816C18.3337 4.66758 18.3042 4.60295 18.2454 4.54428C18.1868 4.48546 18.1221 4.45605 18.0516 4.45605H3.9491C3.87851 4.45605 3.81389 4.48546 3.75522 4.54428C3.6964 4.60295 3.66699 4.66758 3.66699 4.73816V16.7254L4.95033 15.4561Z" fill="#666666"/>
</svg>
