<svg width="84" height="30" viewBox="0 0 84 30" fill="none" xmlns="http://www.w3.org/2000/svg">
<mask id="mask0_1_959" style="mask-type:luminance" maskUnits="userSpaceOnUse" x="1" y="1" width="82" height="28">
<path d="M1.24463 1.25688H82.7558V28.6098H1.24463V1.25688Z" fill="white"/>
</mask>
<g mask="url(#mask0_1_959)">
<path d="M82.7558 1.25688V21.6845H78.1078V1.25688H82.7558ZM76.3967 8.15111V21.7218H72.2651V20.552C71.7425 21.0622 71.1451 21.448 70.4856 21.7218C69.8198 22.008 69.098 22.1573 68.3264 22.1573C67.3558 22.1573 66.4536 21.9769 65.626 21.616C64.7984 21.2365 64.0767 20.72 63.4669 20.0729C62.8509 19.4196 62.3656 18.6605 62.0047 17.7956C61.6624 16.912 61.4944 15.96 61.4944 14.9458C61.4944 13.9316 61.6624 12.992 62.0047 12.1271C62.3656 11.2436 62.8509 10.472 63.4669 9.81867C64.0752 9.1703 64.8101 8.65359 65.626 8.30044C66.4536 7.92089 67.3558 7.728 68.3264 7.728C69.098 7.728 69.8198 7.87111 70.4856 8.16356C71.1513 8.43733 71.7487 8.82311 72.2651 9.33333V8.16356H76.3967V8.15111ZM69.0731 18.0258C69.9193 18.0258 70.61 17.7396 71.1513 17.1547C71.7113 16.576 71.9913 15.8356 71.9913 14.9333C71.9913 14.0311 71.7113 13.2844 71.1513 12.712C70.61 12.1333 69.9131 11.8409 69.0731 11.8409C68.2331 11.8409 67.5238 12.1271 66.9638 12.712C66.4224 13.2907 66.1487 14.0311 66.1487 14.9333C66.1487 15.8356 66.4224 16.5822 66.9638 17.1547C67.5238 17.7333 68.2269 18.0258 69.0731 18.0258ZM54.8616 1.25688C56.0873 1.25688 57.1327 1.43111 57.9976 1.77333C58.8624 2.11555 59.5904 2.59466 60.1878 3.21066C60.7976 3.84533 61.2767 4.56711 61.6189 5.38222C61.9611 6.19733 62.1291 7.07467 62.1291 8.01422C62.1291 8.95378 61.9611 9.83111 61.6189 10.6462C61.283 11.4538 60.7974 12.1906 60.1878 12.8178C59.5967 13.4338 58.8624 13.9129 57.9976 14.2551C57.1327 14.5973 56.0873 14.7716 54.8616 14.7716H52.6215V21.7156H47.8927V1.25688H54.8616ZM54.1833 10.5653C54.818 10.5653 55.2971 10.5031 55.6456 10.3724C56.0064 10.2293 56.3051 10.0427 56.5353 9.83111C57.0207 9.37689 57.2633 8.77333 57.2633 8.01422C57.2633 7.25511 57.0207 6.65156 56.5353 6.19733C56.2989 5.97955 56.0064 5.80533 55.6456 5.68089C55.3033 5.53778 54.818 5.46311 54.1833 5.46311H52.6153V10.5653H54.1833ZM30.4704 8.15111H35.6038L39.0882 14.6596H39.1442L42.2491 8.15111H47.0029L36.8171 28.6098H32.0882L36.7362 19.2516L30.4704 8.15111ZM29.5558 8.15111V21.7218H25.4242V20.552C24.9015 21.0622 24.3042 21.448 23.6446 21.7218C22.9789 22.008 22.2571 22.1573 21.4855 22.1573C20.5149 22.1573 19.6126 21.9769 18.7851 21.616C17.9575 21.2365 17.2357 20.72 16.626 20.0729C16.01 19.4196 15.5246 18.6605 15.1637 17.7956C14.8215 16.912 14.6535 15.96 14.6535 14.9458C14.6535 13.9316 14.8215 12.992 15.1637 12.1271C15.5246 11.2436 16.01 10.472 16.626 9.81867C17.2331 9.16895 17.9683 8.65202 18.7851 8.30044C19.6126 7.92089 20.5149 7.728 21.4855 7.728C22.2571 7.728 22.9789 7.87111 23.6446 8.16356C24.3104 8.43733 24.9078 8.82311 25.4242 9.33333V8.16356H29.5558V8.15111ZM22.2322 18.0258C23.0784 18.0258 23.7691 17.7396 24.3166 17.1547C24.8766 16.576 25.1566 15.8356 25.1566 14.9333C25.1566 14.0311 24.8766 13.2844 24.3166 12.712C23.7753 12.1333 23.0784 11.8409 22.2322 11.8409C21.386 11.8409 20.6829 12.1271 20.1229 12.712C19.5815 13.2907 19.314 14.0311 19.314 14.9333C19.314 15.8356 19.5878 16.5822 20.1229 17.1547C20.6829 17.7333 21.386 18.0258 22.2322 18.0258ZM8.21352 1.25688C9.4393 1.25688 10.4846 1.43111 11.3495 1.77333C12.2144 2.11555 12.9424 2.59466 13.5397 3.21066C14.1495 3.84533 14.6286 4.56711 14.9709 5.38222C15.3131 6.19733 15.4811 7.07467 15.4811 8.01422C15.4811 8.95378 15.3131 9.83111 14.9709 10.6462C14.635 11.4538 14.1494 12.1906 13.5397 12.8178C12.9486 13.4338 12.2144 13.9129 11.3495 14.2551C10.4846 14.5973 9.4393 14.7716 8.21352 14.7716H5.97352V21.7156H1.24463V1.25688H8.21352ZM7.54152 10.5653C8.17619 10.5653 8.6553 10.5031 9.00374 10.3724C9.36463 10.2293 9.6633 10.0427 9.89352 9.83111C10.3789 9.37689 10.6215 8.77333 10.6215 8.01422C10.6215 7.25511 10.3789 6.65156 9.89352 6.19733C9.65708 5.97955 9.36463 5.80533 9.00374 5.68089C8.66152 5.53778 8.17619 5.46311 7.54152 5.46311H5.97352V10.5653H7.54152Z" fill="black"/>
</g>
</svg>
