<svg width="22" height="22" viewBox="0 0 22 22" fill="none" xmlns="http://www.w3.org/2000/svg">
<path d="M8.60547 12.9228C8.84029 12.9228 9.03755 13.0022 9.19629 13.161C9.3551 13.3198 9.43457 13.5171 9.43457 13.7519V18.5107C9.43457 18.7453 9.35513 18.9426 9.19629 19.1015C9.03755 19.2602 8.84029 19.3398 8.60547 19.3398H3.8457C3.61127 19.3397 3.41464 19.26 3.25586 19.1015C3.09712 18.9426 3.01758 18.7453 3.01758 18.5107V13.7519C3.01758 13.517 3.09712 13.3198 3.25586 13.161C3.41465 13.0023 3.61125 12.9229 3.8457 12.9228H8.60547ZM17.208 12.9228C17.4427 12.9228 17.6399 13.0022 17.7988 13.161C17.9575 13.3198 18.0371 13.5171 18.0371 13.7519V18.5107C18.0371 18.7453 17.9576 18.9426 17.7988 19.1015C17.6399 19.2602 17.4427 19.3398 17.208 19.3398H12.4492C12.2144 19.3398 12.0171 19.2602 11.8584 19.1015C11.6995 18.9426 11.6201 18.7453 11.6201 18.5107V13.7519C11.6201 13.517 11.6995 13.3198 11.8584 13.161C12.0171 13.0022 12.2144 12.9228 12.4492 12.9228H17.208ZM4.39258 17.9648H8.05957V14.2978H4.39258V17.9648ZM12.9951 17.9648H16.6621V14.2978H12.9951V17.9648ZM14.7598 2.92179C14.8641 2.57295 15.3576 2.57295 15.4619 2.92179L15.9561 4.57511C16.1376 5.18219 16.5965 5.66815 17.1924 5.8837L18.7412 6.44327C19.0635 6.56002 19.0633 7.01583 18.7412 7.13273L17.1924 7.69327C16.5966 7.90881 16.1376 8.39389 15.9561 9.00089L15.4619 10.6552C15.3575 11.0038 14.8642 11.0037 14.7598 10.6552L14.2646 9.00089C14.0831 8.39401 13.625 7.90881 13.0293 7.69327L11.4805 7.13273C11.158 7.01598 11.1579 6.55996 11.4805 6.44327L13.0293 5.8837C13.6251 5.66814 14.0831 5.18219 14.2646 4.57511L14.7598 2.92179ZM8.60547 4.32023C8.84029 4.32023 9.03755 4.39977 9.19629 4.55851C9.35496 4.71727 9.43448 4.91396 9.43457 5.14835V9.90812C9.43457 10.1429 9.35518 10.3402 9.19629 10.4989C9.03755 10.6578 8.84029 10.7372 8.60547 10.7372H3.8457C3.61131 10.7371 3.41463 10.6576 3.25586 10.4989C3.09712 10.3402 3.01758 10.1429 3.01758 9.90812V5.14835C3.01767 4.91386 3.09721 4.71731 3.25586 4.55851C3.41466 4.39986 3.61121 4.32032 3.8457 4.32023H8.60547ZM4.39258 9.36222H8.05957V5.69523H4.39258V9.36222Z" fill="#666666"/>
</svg>
