<svg width="22" height="22" viewBox="0 0 22 22" fill="none" xmlns="http://www.w3.org/2000/svg">
<path d="M16 7.66699H10.375" stroke="#666666" stroke-width="1.4" stroke-linecap="round" stroke-linejoin="round"/>
<path d="M11.625 14.333H6" stroke="#666666" stroke-width="1.4" stroke-linecap="round" stroke-linejoin="round"/>
<path d="M14.125 16C15.1605 16 16 15.1605 16 14.125C16 13.0895 15.1605 12.25 14.125 12.25C13.0895 12.25 12.25 13.0895 12.25 14.125C12.25 15.1605 13.0895 16 14.125 16Z" stroke="#666666" stroke-width="1.4" stroke-linecap="round" stroke-linejoin="round"/>
<path d="M7.875 9.75C8.91053 9.75 9.75 8.91053 9.75 7.875C9.75 6.83947 8.91053 6 7.875 6C6.83947 6 6 6.83947 6 7.875C6 8.91053 6.83947 9.75 7.875 9.75Z" stroke="#666666" stroke-width="1.4" stroke-linecap="round" stroke-linejoin="round"/>
<path d="M17.3333 3H4.66667C3.74619 3 3 3.74619 3 4.66667V17.3333C3 18.2538 3.74619 19 4.66667 19H17.3333C18.2538 19 19 18.2538 19 17.3333V4.66667C19 3.74619 18.2538 3 17.3333 3Z" stroke="#666666" stroke-width="1.4"/>
</svg>
